<?xml version="1.0" encoding="UTF-8" standalone="no"?>
<svg
   xmlns:dc="http://purl.org/dc/elements/1.1/"
   xmlns:cc="http://creativecommons.org/ns#"
   xmlns:rdf="http://www.w3.org/1999/02/22-rdf-syntax-ns#"
   xmlns:svg="http://www.w3.org/2000/svg"
   xmlns="http://www.w3.org/2000/svg"
   xmlns:sodipodi="http://sodipodi.sourceforge.net/DTD/sodipodi-0.dtd"
   xmlns:inkscape="http://www.inkscape.org/namespaces/inkscape"
   width="12.159546mm"
   height="3.8314464mm"
   viewBox="0 0 12.159546 3.8314464"
   version="1.1"
   id="svg8"
   inkscape:version="1.0.1 (3bc2e813f5, 2020-09-07)"
   sodipodi:docname="logo.svg">
  <defs
     id="defs2">
    <rect
       x="103.61272"
       y="12.000744"
       width="31.324778"
       height="21.59189"
       id="rect935" />
    <rect
       x="100.21094"
       y="12.992932"
       width="32.364212"
       height="21.119419"
       id="rect926" />
    <rect
       x="25.702381"
       y="48.380951"
       width="139.09525"
       height="77.10714"
       id="rect835" />
  </defs>
  <sodipodi:namedview
     id="base"
     pagecolor="#ffffff"
     bordercolor="#666666"
     borderopacity="1.0"
     inkscape:pageopacity="0.0"
     inkscape:pageshadow="2"
     inkscape:zoom="7.9195959"
     inkscape:cx="31.892099"
     inkscape:cy="1.5317485"
     inkscape:document-units="mm"
     inkscape:current-layer="layer1"
     inkscape:document-rotation="0"
     showgrid="false"
     inkscape:window-width="1920"
     inkscape:window-height="1017"
     inkscape:window-x="1272"
     inkscape:window-y="-8"
     inkscape:window-maximized="1" />
  <metadata
     id="metadata5">
    <rdf:RDF>
      <cc:Work
         rdf:about="">
        <dc:format>image/svg+xml</dc:format>
        <dc:type
           rdf:resource="http://purl.org/dc/dcmitype/StillImage" />
        <dc:title></dc:title>
      </cc:Work>
    </rdf:RDF>
  </metadata>
  <g
     inkscape:label="Layer 1"
     inkscape:groupmode="layer"
     id="layer1"
     transform="translate(-78.807818,-16.660104)">
    <text
       xml:space="preserve"
       id="text833"
       style="font-style:normal;font-weight:normal;font-size:10.5833px;line-height:1.25;font-family:sans-serif;letter-spacing:0px;white-space:pre;shape-inside:url(#rect835);fill:#000000;fill-opacity:1;stroke:none;stroke-width:0.6;stroke-miterlimit:4;stroke-dasharray:none;"><tspan
         x="25.703125"
         y="58.975613"><tspan
           style="font-style:normal;font-variant:normal;font-weight:normal;font-stretch:condensed;font-family:Impact;-inkscape-font-specification:'Impact Condensed';stroke:none;stroke-width:0.6;stroke-miterlimit:4;stroke-dasharray:none;stroke-opacity:1">FAUXFLIX</tspan></tspan></text>
    <text
       xml:space="preserve"
       style="font-style:normal;font-weight:normal;font-size:10.5833px;line-height:1.25;font-family:sans-serif;fill:#000000;fill-opacity:1;stroke:none;stroke-width:0.264583"
       x="27.261492"
       y="36.348656"
       id="text860"><tspan
         sodipodi:role="line"
         id="tspan858"
         x="27.261492"
         y="36.348656"
         style="stroke-width:0.264583" /></text>
    <ellipse
       style="fill:#000000;fill-opacity:0;stroke:none;stroke-width:1;stroke-miterlimit:4;stroke-dasharray:none;stroke-opacity:1"
       id="path862"
       cx="33.976639"
       cy="25.724691"
       rx="8.6528511"
       ry="7.8844509" />
    <ellipse
       style="fill:#000000;fill-opacity:0;stroke:none;stroke-width:1;stroke-miterlimit:4;stroke-dasharray:none;stroke-opacity:1"
       id="path866"
       cx="29.967594"
       cy="30.201456"
       rx="10.72419"
       ry="8.4189901" />
    <ellipse
       style="fill:#000000;fill-opacity:0;stroke:none;stroke-width:1;stroke-miterlimit:4;stroke-dasharray:none;stroke-opacity:1"
       id="path868"
       cx="39.990204"
       cy="33.47551"
       rx="9.5214767"
       ry="9.6217022" />
    <g
       aria-label="FAUXFLIX"
       transform="scale(0.8831647,1.1322916)"
       id="text890"
       style="font-style:normal;font-weight:normal;font-size:3.99448px;line-height:1.25;font-family:sans-serif;fill:#000000;fill-opacity:1;stroke:none;stroke-width:0.113229;stroke-miterlimit:4;stroke-dasharray:none">
      <path
         d="m 89.290515,14.770233 h 1.390656 v 0.631939 h -0.569526 v 0.598782 h 0.507112 v 0.600732 h -0.507112 v 1.232407 l -0.794381,0.187772 z"
         style="font-style:normal;font-variant:normal;font-weight:normal;font-stretch:normal;font-size:3.99448px;font-family:Impact;-inkscape-font-specification:Impact;stroke:#ffffff;stroke-width:0.113229;stroke-miterlimit:4;stroke-dasharray:none;stroke-opacity:1"
         id="path962"
         sodipodi:nodetypes="ccccccccccc" />
      <path
         d="m 92.218109,14.770233 0.376434,2.667455 -0.747015,0.09389 -0.04096,-0.306782 h -0.294515 l -0.04876,0.348509 -0.877136,0.198203 0.444141,-3.00127 z m -0.434945,1.894785 c -0.04161,-0.357579 -0.08322,-0.663414 -0.124828,-1.18873 -0.08322,0.603333 -0.135229,0.909168 -0.156034,1.18873 z"
         style="font-style:normal;font-variant:normal;font-weight:normal;font-stretch:normal;font-size:3.99448px;font-family:Impact;-inkscape-font-specification:Impact;stroke:#ffffff;stroke-width:0.113229;stroke-miterlimit:4;stroke-dasharray:none;stroke-opacity:1"
         id="path964"
         sodipodi:nodetypes="ccccccccccccc" />
      <path
         d="m 94.695155,14.770233 -0.02675,1.453166 c -0.0044,0.239228 -0.0078,0.40764 -0.0234,0.505161 -0.0156,0.09622 -0.06176,0.195694 -0.13848,0.298416 -0.07672,0.101422 -0.178139,0.178789 -0.304267,0.232101 -0.124828,0.05201 -0.27241,0.07802 -0.442748,0.07802 -0.188541,0 -0.354978,-0.03121 -0.49931,-0.09362 -0.144332,-0.06241 -0.252255,-0.143681 -0.323771,-0.243804 -0.07152,-0.100122 -0.113775,-0.205445 -0.126778,-0.31597 -0.013,-0.111824 0.0072,0.311323 0.0072,-0.04496 v -1.868512 h 0.821131 l -0.02675,1.710623 c -0.0022,0.13782 0.0071,0.22625 0.02145,0.265258 0.01561,0.03771 0.04616,0.05656 0.09167,0.05656 0.05201,0 0.08517,-0.0208 0.09947,-0.06241 0.01561,-0.04291 0.02089,-0.143048 0.02341,-0.300367 l 0.02675,-1.669663 z"
         style="font-style:normal;font-variant:normal;font-weight:normal;font-stretch:normal;font-size:3.99448px;font-family:Impact;-inkscape-font-specification:Impact;stroke:#ffffff;stroke-width:0.113229;stroke-miterlimit:4;stroke-dasharray:none;stroke-opacity:1"
         id="path966"
         sodipodi:nodetypes="cscccssscsccscscscc" />
      <path
         d="m 96.676792,14.770233 -0.286713,1.020966 0.259128,1.448286 h -0.68042 c -0.09102,-0.314669 -0.08062,-0.384652 -0.156035,-0.835852 -0.02081,0.198944 -0.04941,0.410241 -0.08582,0.63389 l -0.06464,0.212394 h -0.786303 l 0.269717,-1.458718 -0.296466,-1.020966 h 0.793825 c 0.01431,0.08712 0.04291,0.232101 0.08582,0.434946 0.03381,0.154734 0.06176,0.296465 0.08387,0.425193 l 0.175538,-0.860139 z"
         style="font-style:normal;font-variant:normal;font-weight:normal;font-stretch:normal;font-size:3.99448px;font-family:Impact;-inkscape-font-specification:Impact;stroke:#ffffff;stroke-width:0.113229;stroke-miterlimit:4;stroke-dasharray:none;stroke-opacity:1"
         id="path968"
         sodipodi:nodetypes="ccccccccccccccc" />
      <path
         d="m 96.9401,14.770233 h 1.390656 v 0.631939 h -0.569525 v 0.379716 h 0.507111 v 0.600732 h -0.507111 l -0.01337,0.877729 H 96.9401 Z"
         style="font-style:normal;font-variant:normal;font-weight:normal;font-stretch:normal;font-size:3.99448px;font-family:Impact;-inkscape-font-specification:Impact;stroke:#ffffff;stroke-width:0.113229;stroke-miterlimit:4;stroke-dasharray:none;stroke-opacity:1"
         id="path970"
         sodipodi:nodetypes="ccccccccccc" />
      <path
         d="m 99.350831,14.770233 0.04012,2.014652 0.49931,0.05216 V 17.44812 L 98.569823,17.322939 98.5297,14.770233 Z"
         style="font-style:normal;font-variant:normal;font-weight:normal;font-stretch:normal;font-size:3.99448px;font-family:Impact;-inkscape-font-specification:Impact;stroke:#ffffff;stroke-width:0.113229;stroke-miterlimit:4;stroke-dasharray:none;stroke-opacity:1"
         id="path972"
         sodipodi:nodetypes="ccccccc" />
      <path
         d="m 100.87022,14.770233 -0.0535,2.813499 -0.75427,-0.125181 -0.0134,-2.688318 z"
         style="font-style:normal;font-variant:normal;font-weight:normal;font-stretch:normal;font-size:3.99448px;font-family:Impact;-inkscape-font-specification:Impact;stroke:#ffffff;stroke-width:0.113229;stroke-miterlimit:4;stroke-dasharray:none;stroke-opacity:1"
         id="path974"
         sodipodi:nodetypes="ccccc" />
      <path
         d="m 102.86355,14.770233 -0.28671,1.396508 0.35275,1.855124 -0.69379,-0.166908 c -0.091,-0.314669 -0.16087,-0.624582 -0.23629,-1.075782 -0.0208,0.198944 -0.0494,0.410241 -0.0858,0.63389 l -0.078,0.337575 -0.67934,-0.104318 0.1761,-1.479581 -0.29647,-1.396508 h 0.79383 c 0.0143,0.08712 0.0429,0.232101 0.0858,0.434946 0.0338,0.154734 0.0618,0.296465 0.0839,0.425193 l 0.17554,-0.860139 z"
         style="font-style:normal;font-variant:normal;font-weight:normal;font-stretch:normal;font-size:3.99448px;font-family:Impact;-inkscape-font-specification:Impact;stroke:#ffffff;stroke-width:0.113229;stroke-miterlimit:4;stroke-dasharray:none;stroke-opacity:1"
         id="path976"
         sodipodi:nodetypes="ccccccccccccccc" />
    </g>
    <text
       xml:space="preserve"
       id="text924"
       style="font-style:normal;font-weight:normal;font-size:10.5833px;line-height:1.25;font-family:sans-serif;white-space:pre;shape-inside:url(#rect926);fill:#000000;fill-opacity:1;stroke:none;" />
    <text
       xml:space="preserve"
       id="text933"
       style="font-style:normal;font-weight:normal;font-size:10.5833px;line-height:1.25;font-family:sans-serif;white-space:pre;shape-inside:url(#rect935);fill:#000000;fill-opacity:1;stroke:none;" />
  </g>
</svg>
